<svg xmlns="http://www.w3.org/2000/svg" viewBox="0 0 28 29.4"><defs><style>.cls-1{fill:#a8abbd;}</style></defs><title>btn_setting</title><g id="Layer_2" data-name="Layer 2"><g id="Layer_1-2" data-name="Layer 1"><path class="cls-1" d="M14,12a2.49,2.49,0,1,0,2.48,2.48A2.48,2.48,0,0,0,14,12Z"/><path class="cls-1" d="M25.25,15.83a10,10,0,0,0,.05-1.13,9.93,9.93,0,0,0-.05-1.12l2-1.77a1.59,1.59,0,0,0,.61-1.89A14.08,14.08,0,0,0,25.1,5.09a1.58,1.58,0,0,0-1.82-.5l-2.7.94a11.58,11.58,0,0,0-1.92-1.12l-.53-2.75A1.64,1.64,0,0,0,16.8.28a14.05,14.05,0,0,0-5.52,0,1.64,1.64,0,0,0-1.4,1.34l-.54,2.8A10.47,10.47,0,0,0,7.41,5.53L4.8,4.63a1.59,1.59,0,0,0-1.89.44A13.92,13.92,0,0,0,.15,9.83,1.57,1.57,0,0,0,.6,11.72l2.15,1.86a9.93,9.93,0,0,0,0,1.12,10,10,0,0,0,0,1.13l-2,1.77a1.58,1.58,0,0,0-.61,1.88A14,14,0,0,0,2.9,24.32a1.57,1.57,0,0,0,1.82.49l2.69-.93A10.47,10.47,0,0,0,9.34,25l.53,2.74a1.62,1.62,0,0,0,1.35,1.39,14.45,14.45,0,0,0,5.51,0,1.62,1.62,0,0,0,1.39-1.34l.54-2.8a11.58,11.58,0,0,0,1.92-1.12l2.62.9a1.62,1.62,0,0,0,1.89-.44,13.92,13.92,0,0,0,2.76-4.76,1.6,1.6,0,0,0-.49-1.92Zm-1.6,6.74-2.9-1a1.14,1.14,0,0,0-1.07.19,9.18,9.18,0,0,1-2.41,1.4,1.13,1.13,0,0,0-.7.83L16,27a11.82,11.82,0,0,1-4,0l-.58-3a1.13,1.13,0,0,0-.7-.83,8.62,8.62,0,0,1-2.39-1.39,1.13,1.13,0,0,0-1.09-.2l-2.9,1a12.31,12.31,0,0,1-2-3.44l2.32-2a1.13,1.13,0,0,0,.37-1.05,7.59,7.59,0,0,1-.11-1.37,7.55,7.55,0,0,1,.11-1.36,1.15,1.15,0,0,0-.37-1.06l-2.32-2a11.85,11.85,0,0,1,2-3.44l2.9,1a1.15,1.15,0,0,0,1.09-.2,8.62,8.62,0,0,1,2.39-1.39,1.13,1.13,0,0,0,.7-.83l.58-3a12.36,12.36,0,0,1,4,0l.58,3a1.13,1.13,0,0,0,.7.83,8.82,8.82,0,0,1,2.4,1.4,1.17,1.17,0,0,0,1.08.19l2.9-1a12.17,12.17,0,0,1,2,3.44l-2.32,2A1.15,1.15,0,0,0,23,13.34a7.55,7.55,0,0,1,.11,1.36A7.67,7.67,0,0,1,23,16.07a1.13,1.13,0,0,0,.37,1.05l2.31,2A12,12,0,0,1,23.65,22.57Z"/></g></g></svg>