<svg xmlns="http://www.w3.org/2000/svg" viewBox="0 0 18.96 16"><defs><style>.cls-1{fill:#a6b0c7;}</style></defs><title>icon_logout</title><g id="Layer_2" data-name="Layer 2"><g id="Layer_1-2" data-name="Layer 1"><path class="cls-1" d="M14.78,10a.89.89,0,0,0,.63,1.52A.93.93,0,0,0,16,11.3L18.7,8.63h0l.05-.07,0,0,0,0,0,0,0,0,0,0a.08.08,0,0,1,0,0v0s0,0,0,0a.08.08,0,0,0,0,0l0-.05v0s0,0,0,0V8h0V7.91s0,0,0,0v0l0,0a.08.08,0,0,0,0,0v0a.06.06,0,0,1,0,0l0,0,0,0a.05.05,0,0,1,0,0l0,0,0,0,0,0-.06-.07L16,4.7a.91.91,0,0,0-1.26,0,.89.89,0,0,0,0,1.26l1.15,1.15H5.63a.89.89,0,0,0,0,1.78h10.3Z"/><path class="cls-1" d="M0,.89V15.11A.89.89,0,0,0,.89,16H12.15a.89.89,0,0,0,.89-.89V11.56a.89.89,0,0,0-1.78,0v2.66H1.78V1.78h9.48V4.44a.89.89,0,1,0,1.78,0V.89A.89.89,0,0,0,12.15,0H.89A.89.89,0,0,0,0,.89Z"/></g></g></svg>