<svg xmlns="http://www.w3.org/2000/svg" xmlns:xlink="http://www.w3.org/1999/xlink" width="56" height="56" viewBox="0 0 56 56">
    <defs>
        <circle id="a" cx="28" cy="28" r="28"/>
    </defs>
    <g fill="none" fill-rule="evenodd">
        <mask id="b" fill="#fff">
            <use xlink:href="#a"/>
        </mask>
        <circle cx="28" cy="28" r="27.5" stroke="#DDD"/>
        <g fill="#DDD" fill-rule="nonzero" mask="url(#b)">
            <path d="M41.234 47.19c-5.9-2.15-7.786-3.964-7.786-7.85 0-2.33 1.933-3.842 2.592-5.84.659-1.998 1.04-4.363 1.357-6.084.317-1.721.443-2.387.615-4.22C38.222 20.907 36.691 15 28.5 15c-8.189 0-9.725 5.907-9.51 8.196.173 1.833.3 2.499.615 4.22.317 1.72.694 4.086 1.353 6.084.658 1.999 2.594 3.51 2.594 5.84 0 3.886-1.886 5.7-7.786 7.85C9.844 49.343 6 51.467 6 52.968V60h45v-7.031c0-1.499-3.847-3.623-9.766-5.78z"/>
        </g>
    </g>
</svg>
