<svg xmlns="http://www.w3.org/2000/svg" xmlns:xlink="http://www.w3.org/1999/xlink" width="80" height="80" viewBox="0 0 80 80">
    <defs>
        <circle id="a" cx="40" cy="40" r="40"/>
    </defs>
    <g fill="none" fill-rule="evenodd">
        <mask id="b" fill="#fff">
            <use xlink:href="#a"/>
        </mask>
        <use fill="#D3D9E4" xlink:href="#a"/>
        <path fill="#FFF" d="M37.668 68.217l-5.953 2.887a3.05 3.05 0 0 1-2.631-.016l-6.69-3.352a.98.98 0 0 0-.933.023.892.892 0 0 0-.46.773v6.516c0 .333.194.639.507.795l16.15 8.053a.975.975 0 0 0 .933-.027.89.89 0 0 0 .46-.768V69.018a.883.883 0 0 0-.456-.765.99.99 0 0 0-.927-.036M57.611 67.11l-6.671 3.48h-.002a2.911 2.911 0 0 1-2.622.016l-5.937-2.996a.947.947 0 0 0-.924.036.928.928 0 0 0-.455.796v14.623c0 .33.174.63.459.8a.94.94 0 0 0 .488.135.938.938 0 0 0 .442-.107l16.105-8.363a.931.931 0 0 0 .506-.826v-6.769a.932.932 0 0 0-.459-.8.943.943 0 0 0-.93-.024" mask="url(#b)"/>
        <g transform="translate(12 5)">
            <path fill="#C5CDDA" d="M28 41.603L12.103 49.5 28 57.397z"/>
            <path fill="#FFF" d="M20.515 8.515c-4.68 4.679-4.68 12.291 0 16.97a11.941 11.941 0 0 0 5.995 3.255l2.142 3.791a.4.4 0 0 0 .691.01l2.309-3.844c2.215-.5 4.23-1.608 5.833-3.212 4.68-4.679 4.68-12.291 0-16.97-4.679-4.68-12.291-4.68-16.97 0"/>
            <rect width="4" height="10" x="27" y="10" fill="#C5CDDA" rx="2"/>
            <circle cx="29" cy="24" r="2" fill="#C5CDDA"/>
            <path fill="#FFF" d="M12.102 49.5l15.899-7.897L43.897 49.5l-15.896 7.897L12.102 49.5zm43.39 3.725L47.995 49.5l7.495-3.725a.906.906 0 0 0 .51-.8.904.904 0 0 0-.499-.807L37.85 35.105a.948.948 0 0 0-.86-.005L28 39.566 19.01 35.1a.948.948 0 0 0-.86.005L.496 44.168a.903.903 0 0 0-.496.806.904.904 0 0 0 .507.801L8.005 49.5.508 53.225a.904.904 0 0 0-.507.8.903.903 0 0 0 .496.807l17.653 9.063a.962.962 0 0 0 .86.005L28 59.434 36.99 63.9a.964.964 0 0 0 .86-.005l17.653-9.063c.308-.157.5-.47.499-.806a.906.906 0 0 0-.51-.801z"/>
        </g>
    </g>
</svg>
