<svg xmlns="http://www.w3.org/2000/svg" xmlns:xlink="http://www.w3.org/1999/xlink" width="80" height="80" viewBox="0 0 80 80">
    <defs>
        <circle id="a" cx="40" cy="40" r="40"/>
    </defs>
    <g fill="none" fill-rule="evenodd">
        <mask id="b" fill="#fff">
            <use xlink:href="#a"/>
        </mask>
        <use fill="#D3D9E4" xlink:href="#a"/>
        <g fill-rule="nonzero" mask="url(#b)">
            <path fill="#FFF" d="M48 74.4H32c0-6.06-2.79-14.052-6.392-17.06A22.491 22.491 0 0 1 17.6 40.1c0-12.426 10.029-22.5 22.4-22.5 12.371 0 22.4 10.074 22.4 22.5 0 6.934-3.325 12.904-8.032 17.26C50.553 61.177 48 68.374 48 74.4z"/>
            <path fill="#D3D9E4" d="M42.4 76a.8.8 0 0 1-.8-.8V48.8h-3.2v26.4a.8.8 0 0 1-.8.8H36a.8.8 0 0 1-.8-.8V48.8h-2a5.206 5.206 0 0 1-5.2-5.2c0-2.867 2.333-5.2 5.2-5.2a5.168 5.168 0 0 1 5.157 4.547.76.76 0 0 1 .043.253v2.4h3.2v-2.4c0-.092.016-.18.045-.263A5.168 5.168 0 0 1 46.8 38.4c2.867 0 5.2 2.333 5.2 5.2s-2.333 5.2-5.2 5.2h-2v26.4a.8.8 0 0 1-.8.8h-1.6zm4.4-30.4c1.103 0 2-.897 2-2s-.897-2-2-2a2.003 2.003 0 0 0-1.967 1.714l-.033.139V45.6h2zm-13.6-4c-1.102 0-2 .897-2 2s.898 2 2 2h2v-2.154l-.032-.132A2.004 2.004 0 0 0 33.2 41.6z"/>
            <path fill="#C5CDDA" d="M30.4 72.8h19.2V80H30.4v-7.2zm4.8-21.6h3.2v-2.4h-3.2v2.4zm6.4-2.4v2.4h3.2v-2.4h-3.2z"/>
        </g>
    </g>
</svg>
