<svg xmlns="http://www.w3.org/2000/svg" xmlns:xlink="http://www.w3.org/1999/xlink" width="80" height="80" viewBox="0 0 80 80">
    <defs>
        <circle id="a" cx="40" cy="40" r="40"/>
    </defs>
    <g fill="none" fill-rule="evenodd">
        <mask id="b" fill="#fff">
            <use xlink:href="#a"/>
        </mask>
        <circle cx="40" cy="40" r="39.5" stroke="#DDD"/>
        <path fill="#DDD" fill-rule="nonzero" d="M59.11 67.78c-8.39-3.057-11.074-5.637-11.074-11.162 0-3.316 2.75-5.465 3.687-8.306.938-2.842 1.48-6.207 1.93-8.654.451-2.448.63-3.394.875-6.002C54.828 30.402 52.65 22 41 22c-11.646 0-13.832 8.402-13.525 11.656.245 2.608.425 3.555.875 6.002.45 2.447.986 5.812 1.923 8.654.937 2.841 3.69 4.99 3.69 8.306 0 5.525-2.682 8.105-11.074 11.162C14.467 70.844 9 73.866 9 76v10h64V76c0-2.131-5.47-5.152-13.89-8.22z" mask="url(#b)"/>
    </g>
</svg>
