<svg xmlns="http://www.w3.org/2000/svg" width="18" height="18" viewBox="0 0 18 18">
    <g fill="none">
        <path d="M0 0H24V24H0z" transform="translate(-3 -3)"/>
        <path stroke="#6C788F" stroke-width="2" d="M8 8H20V20H8z" transform="translate(-3 -3)"/>
        <g>
            <path fill="#6C788F" d="M2 1L4.5 4 -0.5 4z" transform="translate(-3 -3) translate(9.5 10) rotate(-90 2 2.5)"/>
            <path stroke="#6C788F" stroke-width="2" d="M2.5 2.5h2.917c1.15 0 2.083.895 2.083 2s-.933 2-2.083 2H4.5" transform="translate(-3 -3) translate(9.5 10)"/>
        </g>
        <path fill="#6C788F" d="M3 3H5V15H3zM14 3H16V6H14z" transform="translate(-3 -3)"/>
        <path fill="#6C788F" d="M3 3H15V5H3zM3 14H6V16H3z" transform="translate(-3 -3)"/>
    </g>
</svg>
