<svg xmlns="http://www.w3.org/2000/svg" width="18" height="18" viewBox="0 0 18 18">
    <g fill="none">
        <path d="M0 0H24V24H0z" transform="translate(-3 -3)"/>
        <path stroke="#6C788F" stroke-width="2" d="M8 8H20V20H8z" transform="translate(-3 -3)"/>
        <g fill="#6C788F">
            <path d="M0 2H6V4H0z" transform="translate(-3 -3) rotate(-45 21.778 -5.778)"/>
            <path d="M0 0H2V4H0z" transform="translate(-3 -3) rotate(-45 21.778 -5.778)"/>
        </g>
        <path fill="#6C788F" d="M3 3H5V15H3zM14 3H16V6H14z" transform="translate(-3 -3)"/>
        <path fill="#6C788F" d="M3 3H15V5H3zM3 14H6V16H3z" transform="translate(-3 -3)"/>
    </g>
</svg>
