<svg xmlns="http://www.w3.org/2000/svg" width="49" height="16" viewBox="0 0 49 16">
    <g fill="#FFF" fill-rule="evenodd">
        <path d="M22.079 2.702a4.642 4.642 0 0 0-1.674-.628 3.343 3.343 0 0 0-1.224.012 1.724 1.724 0 0 0-.523.194.986.986 0 0 0-.344.324.825.825 0 0 0-.123.453c0 .128.019.243.055.345a.995.995 0 0 0 .153.274c.064.08.139.153.222.218.083.064.171.123.264.177.224.13.458.258.702.388l.731.39c.243.13.478.26.706.39.228.132.438.262.63.39.258.173.475.353.653.542.177.19.321.389.432.598.11.21.19.43.239.66.048.23.073.47.073.72 0 .36-.05.685-.152.977a2.634 2.634 0 0 1-.425.78c-.181.23-.395.428-.644.596a3.87 3.87 0 0 1-.81.412 4.92 4.92 0 0 1-.922.24c-.322.054-.65.08-.982.08-.318 0-.636-.017-.95-.053a5.888 5.888 0 0 1-1.396-.34 1.55 1.55 0 0 1-.386-.203.93.93 0 0 1-.268-.3.899.899 0 0 1-.1-.446c0-.139.025-.261.075-.367a.748.748 0 0 1 .208-.266.897.897 0 0 1 .313-.162c.119-.036.247-.054.383-.054.131 0 .26.018.387.052.128.035.253.074.377.118.265.09.526.153.783.19.257.038.49.057.698.057.2 0 .4-.017.598-.049.198-.031.376-.09.532-.173.156-.084.284-.198.382-.343.098-.145.146-.333.146-.562a.93.93 0 0 0-.19-.577 1.227 1.227 0 0 0-.2-.211 2.352 2.352 0 0 0-.242-.176 7.874 7.874 0 0 0-.384-.227 41.716 41.716 0 0 0-.993-.54l-.495-.263a28.435 28.435 0 0 1-.42-.226 6.938 6.938 0 0 1-.285-.164 6.222 6.222 0 0 1-.697-.504 2.906 2.906 0 0 1-.533-.582 2.518 2.518 0 0 1-.34-.715 3.139 3.139 0 0 1-.12-.906c0-.365.052-.69.155-.974a2.41 2.41 0 0 1 .426-.747c.182-.213.394-.394.639-.543.244-.15.508-.27.793-.36.283-.092.58-.158.888-.2a7.622 7.622 0 0 1 2.672.137 5.93 5.93 0 0 1 1.386.511l-.88 1.636zM27.062.526v6.218c0 .322.007.607.02.855.015.248.043.468.085.658.04.19.096.356.165.495.07.14.16.263.274.368.108.103.224.186.348.249.123.064.248.111.375.144.127.034.254.057.38.068.126.011.246.017.359.017a2.213 2.213 0 0 0 1.068-.306c.118-.07.226-.155.324-.253.103-.102.185-.222.245-.358.06-.137.107-.299.139-.488.032-.189.053-.408.062-.658.009-.25.013-.538.013-.868V1.4c0-.16.027-.304.08-.428a.862.862 0 0 1 .221-.316.943.943 0 0 1 .335-.19c.13-.043.27-.064.421-.064.16 0 .304.024.434.07a.92.92 0 0 1 .333.198.87.87 0 0 1 .215.315c.05.123.075.262.075.415v5.22a25.91 25.91 0 0 1-.008.655c-.007.33-.037.65-.088.957-.052.31-.137.607-.255.895-.17.415-.387.758-.65 1.033a3.305 3.305 0 0 1-.878.662 3.758 3.758 0 0 1-1.026.353c-.362.07-.726.104-1.091.104-.285 0-.579-.021-.878-.063a4.713 4.713 0 0 1-.88-.212c-.286-.1-.56-.229-.821-.388a3.136 3.136 0 0 1-.704-.59 3.14 3.14 0 0 1-.445-.627 3.317 3.317 0 0 1-.27-.67 4.191 4.191 0 0 1-.137-.722 8.493 8.493 0 0 1-.043-.786l-.003-.296v-6.4h2.206zM38.109.526l2.098 3.996.273.527a80.055 80.055 0 0 1 1.035 2.097 41.437 41.437 0 0 1 .682 1.519h.062a51.296 51.296 0 0 1-.193-2.218 41.24 41.24 0 0 1-.07-2.403V.526h2.022V9.73c0 .305-.042.545-.127.722a1.16 1.16 0 0 1-.237.334 1.354 1.354 0 0 1-.324.233c-.12.062-.249.108-.386.139-.138.03-.279.046-.423.046a1.58 1.58 0 0 1-.82-.226c-.253-.15-.473-.397-.66-.742l-1.744-3.197c-.15-.273-.301-.557-.455-.851a33.352 33.352 0 0 1-.982-2.038c-.174-.391-.353-.819-.538-1.284h-.073a46.28 46.28 0 0 1 .256 3.546c.012.374.017.732.017 1.074v2.588c0 .185-.02.341-.059.469-.04.127-.103.243-.187.345a.896.896 0 0 1-.31.24c-.125.061-.277.092-.454.092-.178 0-.33-.03-.455-.092a.894.894 0 0 1-.312-.24.98.98 0 0 1-.185-.345 1.638 1.638 0 0 1-.059-.469V.526h2.608zM48.708.526v9.458c0 .196-.021.362-.063.498a1.108 1.108 0 0 1-.196.366.948.948 0 0 1-.333.259 1.108 1.108 0 0 1-.48.096c-.185 0-.345-.032-.48-.096a.948.948 0 0 1-.334-.259 1.106 1.106 0 0 1-.195-.366 1.676 1.676 0 0 1-.063-.498V.526h2.144zM3.876 11.007l-.725.298.014-.137.039-.361.034-.342.246-2.193.034-.249c.014-.13.02-.257.02-.38 0-.316-.096-.474-.288-.474-.3 0-.65.306-1.049.918-.398.612-.629 1.195-.69 1.748l-.125 1.172-.73.298.014-.137.039-.361.039-.342.25-2.266.03-.259c.022-.201.034-.364.034-.488 0-.208-.052-.312-.157-.312-.245 0-.509.276-.792.83C.037 7.908 0 7.854 0 7.809c0-.196.178-.462.535-.799.357-.337.64-.505.849-.505.28 0 .42.179.42.537 0 .091-.008.213-.024.366l-.04.396-.04.332-.04.346.137-.215c.73-1.175 1.408-1.762 2.036-1.762.303 0 .454.218.454.654 0 .075-.013.233-.038.474l-.05.449-.067.61c.303-.628.661-1.15 1.076-1.565.415-.415.785-.622 1.11-.622.323 0 .484.208.484.625 0 .179-.019.392-.056.64l-.26 1.81a6.086 6.086 0 0 0-.087.87c0 .172.048.259.143.259.112 0 .251-.093.42-.278a2.26 2.26 0 0 0 .405-.63c.089.058.133.112.133.16 0 .206-.183.48-.547.826-.364.345-.654.518-.87.518-.277 0-.416-.186-.416-.557 0-.234.035-.597.107-1.089l.175-1.177.034-.278c.006-.059.017-.158.034-.298.015-.14.024-.247.024-.322 0-.277-.092-.415-.274-.415-.304 0-.659.306-1.063.918-.404.612-.636 1.195-.698 1.748l-.13 1.172zM11.53 9.234c-.329.6-.674 1.094-1.033 1.485-.36.39-.654.586-.882.586-.313 0-.486-.329-.518-.986l-.035-.678L9 8.261l-.015-.395c-.029-.523-.125-.785-.288-.785-.254 0-.5.24-.742.718-.085-.059-.127-.122-.127-.19 0-.177.158-.405.474-.684.317-.28.574-.42.773-.42.205 0 .35.092.435.276.085.184.14.523.167 1.018l.09 1.709c.032.65.135.976.311.976.263 0 .59-.302.98-.906.39-.604.64-1.197.75-1.78l.19-.995.87-.303c-.111.286-.225.72-.343 1.298l-.654 3.275c-.257 1.281-.654 2.228-1.191 2.84-.804.91-1.736 1.366-2.793 1.366-.222 0-.47-.05-.747-.147l.6-.663c.307.136.626.205.958.205.678 0 1.186-.22 1.525-.658.339-.439.622-1.243.85-2.413l.458-2.369z"/>
    </g>
</svg>
