<svg xmlns="http://www.w3.org/2000/svg" width="79" height="25" viewBox="0 0 79 25">
    <g fill="none" fill-rule="evenodd">
        <path fill="#E1002A" d="M35.326 4.323a7.427 7.427 0 0 0-1.743-.783 7.398 7.398 0 0 0-.936-.222 5.349 5.349 0 0 0-1.958.02 2.76 2.76 0 0 0-.836.31c-.235.137-.419.31-.55.518a1.32 1.32 0 0 0-.198.725c0 .205.03.39.09.552.06.163.14.309.243.44.103.128.223.243.356.347.133.103.274.198.422.284.358.206.732.412 1.123.62.391.207.782.417 1.17.624.388.207.765.417 1.13.626.363.21.7.418 1.008.624.411.275.76.563 1.044.866.284.303.514.622.69.956.178.336.305.687.384 1.056.076.368.116.752.116 1.15 0 .577-.08 1.098-.243 1.566-.163.467-.39.884-.68 1.25-.29.365-.632.682-1.03.95-.398.267-.83.488-1.296.66a7.871 7.871 0 0 1-1.475.386 9.64 9.64 0 0 1-1.57.126c-.51 0-1.018-.027-1.522-.085a9.422 9.422 0 0 1-2.234-.544 2.48 2.48 0 0 1-.617-.324 1.488 1.488 0 0 1-.43-.481c-.106-.191-.16-.428-.16-.712 0-.222.042-.419.121-.587.08-.169.19-.312.333-.427.142-.115.309-.201.5-.259a2.11 2.11 0 0 1 .614-.086c.21 0 .417.028.62.083.204.057.404.118.602.19a7.21 7.21 0 0 0 1.253.304c.412.059.783.09 1.117.09.32 0 .64-.027.957-.078.317-.05.6-.144.852-.277.25-.134.454-.316.61-.55.156-.231.234-.532.234-.898a1.49 1.49 0 0 0-.305-.923 1.963 1.963 0 0 0-.32-.339 3.764 3.764 0 0 0-.387-.28 12.598 12.598 0 0 0-.614-.364 66.745 66.745 0 0 0-1.588-.864c-.28-.15-.545-.288-.793-.42-.25-.133-.473-.252-.67-.362-.198-.108-.35-.196-.457-.262a9.955 9.955 0 0 1-1.117-.808 4.65 4.65 0 0 1-.851-.93 4.03 4.03 0 0 1-.543-1.145 5.022 5.022 0 0 1-.192-1.45c0-.583.082-1.103.247-1.557.164-.455.392-.853.681-1.195.29-.341.631-.63 1.022-.87.39-.24.813-.43 1.268-.576a8.347 8.347 0 0 1 1.423-.319 12.196 12.196 0 0 1 4.275.22 9.488 9.488 0 0 1 2.217.817l-1.407 2.617zM43.3.842v9.948c0 .516.01.971.032 1.368.024.397.067.748.135 1.053.064.303.153.57.264.793.111.223.257.42.438.588.173.165.36.298.557.398.197.103.397.178.6.231.203.054.406.091.608.109.201.018.393.027.575.027.164 0 .344-.018.538-.052a3.54 3.54 0 0 0 .592-.16 3.33 3.33 0 0 0 .578-.277c.19-.113.362-.249.519-.405a1.87 1.87 0 0 0 .392-.573 3.25 3.25 0 0 0 .222-.782c.052-.302.085-.653.099-1.052.015-.399.022-.861.022-1.39V2.243c0-.258.042-.487.126-.685.084-.2.203-.37.355-.505a1.51 1.51 0 0 1 .536-.305c.207-.068.431-.102.674-.102.255 0 .485.038.694.112.208.073.386.178.533.317.148.138.264.306.343.503.081.198.12.42.12.665v8.35a41.456 41.456 0 0 1-.012 1.05 10.81 10.81 0 0 1-.14 1.53c-.085.496-.22.971-.41 1.432-.271.664-.618 1.214-1.04 1.654-.42.442-.89.793-1.403 1.059a6.013 6.013 0 0 1-1.642.565 9.258 9.258 0 0 1-1.746.166c-.457 0-.926-.034-1.404-.102a7.54 7.54 0 0 1-1.407-.338 6.776 6.776 0 0 1-1.315-.622 5.018 5.018 0 0 1-1.126-.943 5.025 5.025 0 0 1-.712-1.003 5.307 5.307 0 0 1-.432-1.07 6.706 6.706 0 0 1-.22-1.157 13.59 13.59 0 0 1-.068-1.257 18.46 18.46 0 0 1-.006-.475V.842h3.53zM60.974.842l3.357 6.394.436.842a128.089 128.089 0 0 1 1.077 2.149c.193.396.387.8.58 1.207.193.407.383.816.568 1.227.185.411.36.812.524 1.203h.098a82.075 82.075 0 0 1-.175-1.78 65.18 65.18 0 0 1-.133-1.768 65.985 65.985 0 0 1-.111-3.845V.841h3.234v14.725c0 .487-.068.87-.203 1.155a1.856 1.856 0 0 1-.38.533c-.155.151-.328.275-.519.373-.19.1-.397.173-.617.222-.22.05-.446.075-.676.075-.469 0-.906-.121-1.311-.361-.406-.24-.758-.637-1.059-1.188l-2.79-5.115a96.164 96.164 0 0 1-.727-1.362 53.362 53.362 0 0 1-1.57-3.261 55.636 55.636 0 0 1-.862-2.055h-.117a74.048 74.048 0 0 1 .326 3.835 63.209 63.209 0 0 1 .112 3.557v4.142c0 .296-.032.546-.095.75a1.624 1.624 0 0 1-.3.551c-.132.16-.296.29-.497.386a1.64 1.64 0 0 1-.725.147c-.284 0-.527-.05-.728-.147a1.431 1.431 0 0 1-.5-.386 1.569 1.569 0 0 1-.296-.55 2.62 2.62 0 0 1-.093-.751V.842h4.172zM77.933.842v15.132c0 .314-.034.58-.101.797a1.773 1.773 0 0 1-.313.586c-.14.173-.318.311-.533.414a1.772 1.772 0 0 1-.768.154c-.297 0-.553-.051-.77-.154a1.516 1.516 0 0 1-.533-.414 1.77 1.77 0 0 1-.312-.586 2.68 2.68 0 0 1-.101-.797V.842h3.431z"/>
        <path fill="#000" d="M6.202 17.611l-1.161.477.023-.22.062-.577.056-.547.392-3.508.056-.399c.02-.208.03-.41.03-.61 0-.504-.153-.757-.46-.757-.48 0-1.04.49-1.678 1.469-.637.98-1.006 1.912-1.105 2.797l-.2 1.875-1.168.477.023-.22.062-.577.063-.547.4-3.625.047-.414a7.18 7.18 0 0 0 .054-.781c0-.334-.082-.5-.25-.5-.392 0-.814.442-1.268 1.328-.12-.1-.18-.186-.18-.258 0-.313.286-.738.856-1.277.571-.54 1.024-.81 1.358-.81.448 0 .672.287.672.86 0 .146-.012.342-.039.586l-.062.633-.065.531-.064.555.22-.344c1.166-1.88 2.252-2.82 3.257-2.82.485 0 .727.35.727 1.047 0 .12-.02.373-.062.758l-.079.718-.108.977c.484-1.006 1.058-1.84 1.722-2.504.664-.664 1.256-.996 1.777-.996.515 0 .773.333.773 1 0 .286-.03.627-.09 1.023l-.415 2.898c-.093.6-.139 1.064-.139 1.392 0 .275.077.413.228.413.179 0 .402-.148.672-.445.27-.296.486-.632.648-1.008.143.094.213.18.213.258 0 .328-.292.768-.875 1.32-.583.553-1.047.829-1.392.829-.444 0-.666-.297-.666-.891 0-.375.057-.956.172-1.742l.279-1.883c.008-.068.028-.216.054-.445l.054-.477c.025-.224.04-.396.04-.516 0-.442-.147-.664-.438-.664-.487 0-1.054.49-1.702 1.469-.646.98-1.018 1.912-1.116 2.797l-.208 1.875zM18.448 14.775c-.526.958-1.078 1.75-1.652 2.375-.577.625-1.048.938-1.412.938-.501 0-.778-.526-.83-1.577l-.054-1.085-.101-2.208-.024-.632c-.047-.837-.2-1.257-.461-1.257-.406 0-.802.384-1.187 1.15-.136-.094-.203-.196-.203-.306 0-.281.252-.646.758-1.093.506-.448.918-.672 1.237-.672.328 0 .56.147.696.441.135.295.224.838.266 1.63l.143 2.734c.052 1.041.218 1.562.5 1.562.42 0 .943-.483 1.567-1.45.623-.966 1.024-1.915 1.2-2.847l.303-1.593 1.392-.485c-.177.458-.36 1.151-.547 2.077l-1.047 5.24c-.41 2.05-1.047 3.565-1.906 4.544-1.286 1.457-2.777 2.186-4.469 2.186-.354 0-.753-.08-1.195-.236l.962-1.06c.49.218 1 .327 1.532.327 1.084 0 1.896-.351 2.439-1.053.542-.701.995-1.988 1.36-3.86l.733-3.79z"/>
    </g>
</svg>
