<svg xmlns="http://www.w3.org/2000/svg" width="32" height="32" viewBox="0 0 32 32">
    <g fill="none" fill-rule="evenodd">
        <path fill="#888" d="M0 0h32v32H0z"/>
        <path fill="#FFF" fill-rule="nonzero" d="M16.677 12.839h-1.92v1.92h-1.919v1.92h1.92v1.919h1.92v-1.92h1.919v-1.92h-1.92V12.84zM24 22.329l-2.773-2.773a6.68 6.68 0 0 0 1.21-3.838 6.719 6.719 0 1 0-6.719 6.719c1.428 0 2.75-.45 3.84-1.21L22.33 24 24 22.33zm-8.283-1.811a4.799 4.799 0 1 1 0-9.597 4.799 4.799 0 0 1 0 9.597z"/>
    </g>
</svg>
