<svg xmlns="http://www.w3.org/2000/svg" width="119" height="20" viewBox="0 0 119 20">
    <g fill="none" fill-rule="nonzero">
        <path fill="#E1002A" d="M8.806 3.96a6.057 6.057 0 0 0-2.152-.815 4.26 4.26 0 0 0-1.574.017c-.26.056-.484.139-.672.25a1.28 1.28 0 0 0-.441.42 1.08 1.08 0 0 0-.159.588c0 .167.024.316.072.447.048.132.113.25.196.356.082.105.177.199.285.282.107.083.22.16.34.23l.592.334 1.25.673c.312.169.614.338.907.508.292.17.563.338.81.505.331.223.61.457.839.702.228.246.413.504.555.775.142.272.244.557.307.856.063.298.095.609.095.932 0 .467-.066.89-.196 1.268s-.313.715-.546 1.012c-.233.297-.509.553-.828.77a4.883 4.883 0 0 1-1.041.535c-.375.14-.77.244-1.185.313a7.751 7.751 0 0 1-1.262.102c-.41 0-.817-.023-1.222-.07a7.409 7.409 0 0 1-1.795-.44 2.064 2.064 0 0 1-.496-.262 1.195 1.195 0 0 1-.345-.39 1.178 1.178 0 0 1-.128-.578c0-.18.032-.338.096-.475a.98.98 0 0 1 .268-.345c.114-.093.248-.163.402-.21a1.69 1.69 0 0 1 .493-.07c.169 0 .335.022.498.068.164.045.325.095.484.152.34.117.676.2 1.006.248.33.048.63.072.898.072.258 0 .514-.02.768-.063.255-.041.483-.116.684-.225.202-.108.366-.256.491-.444.126-.189.189-.431.189-.728 0-.15-.023-.287-.067-.41a1.34 1.34 0 0 0-.179-.338 1.556 1.556 0 0 0-.258-.274 3.034 3.034 0 0 0-.31-.228c-.101-.065-.219-.137-.353-.215l-.14-.08c-.193-.11-.398-.224-.615-.342l-1.671-.9-.376-.21a8.153 8.153 0 0 1-1.054-.748 3.797 3.797 0 0 1-.684-.752 3.296 3.296 0 0 1-.437-.928A4.111 4.111 0 0 1 .992 4.66c0-.473.066-.894.198-1.263.132-.368.315-.69.548-.967.233-.277.506-.512.82-.705.315-.193.654-.35 1.02-.468A6.52 6.52 0 0 1 4.72 1 8.92 8.92 0 0 1 5.91.92a9.822 9.822 0 0 1 2.244.257c.342.082.663.18.962.293.3.113.573.237.82.37l-1.13 2.12zm13.883-2.82l-5.117 6.48 4.126 5.14c.096.117.176.25.24.402.065.152.097.298.097.438 0 .207-.037.394-.11.563a1.317 1.317 0 0 1-.753.717c-.175.067-.364.1-.565.1a1.609 1.609 0 0 1-.863-.277.783.783 0 0 1-.208-.203l-4.284-5.84a1.254 1.254 0 0 1-.137-.228 1.863 1.863 0 0 1-.17-.692c0-.15.02-.298.064-.445.043-.147.117-.292.223-.435l4.264-5.72h3.193zm-8.072 0V13.4c0 .253-.027.468-.082.645a1.42 1.42 0 0 1-.25.475c-.112.14-.255.252-.429.335-.173.083-.38.125-.617.125-.238 0-.444-.042-.618-.125a1.215 1.215 0 0 1-.428-.335 1.42 1.42 0 0 1-.25-.475 2.208 2.208 0 0 1-.083-.645V1.14h2.757z"/>
        <path fill="#000" d="M29.704 4.4v6.48c0 .347.041.64.124.882.082.242.196.44.34.595.143.156.313.268.508.338s.406.105.634.105c.271 0 .523-.045.756-.135.233-.09.44-.203.623-.34.181-.137.334-.287.458-.452.124-.166.213-.323.266-.473v-7h2.637v9.145c0 .19-.017.37-.052.543a1.29 1.29 0 0 1-.183.457.93.93 0 0 1-.36.318 1.25 1.25 0 0 1-.575.117c-.208 0-.384-.04-.528-.123a1.091 1.091 0 0 1-.357-.322 1.479 1.479 0 0 1-.213-.453 2.858 2.858 0 0 1-.097-.512c-.129.17-.283.34-.463.512-.18.172-.395.325-.645.46a3.84 3.84 0 0 1-.868.33 4.546 4.546 0 0 1-1.133.128c-.535 0-1.02-.077-1.455-.23a2.807 2.807 0 0 1-1.113-.713c-.307-.321-.545-.73-.712-1.225-.166-.495-.25-1.085-.25-1.772V4.4h2.658zm11.587 0v1.12c.12-.133.272-.28.459-.44.187-.16.41-.31.67-.45.259-.14.558-.257.897-.35.339-.093.721-.14 1.148-.14.535 0 1.02.077 1.455.23.435.153.806.39 1.113.712.307.322.545.731.712 1.228.166.497.25 1.087.25 1.77v5.58c0 .27-.05.494-.151.672-.101.179-.223.316-.365.413a1.431 1.431 0 0 1-1.257.188 1.467 1.467 0 0 1-.379-.188 1.163 1.163 0 0 1-.36-.41c-.097-.177-.146-.402-.146-.675v-5.4c0-.343-.041-.637-.124-.88a1.64 1.64 0 0 0-.34-.598 1.27 1.27 0 0 0-.508-.337 1.865 1.865 0 0 0-.634-.105c-.271 0-.523.045-.756.135-.233.09-.44.203-.623.34a2.286 2.286 0 0 0-.458.452 1.794 1.794 0 0 0-.266.473v5.92c0 .27-.05.494-.15.672-.102.179-.223.316-.365.413a1.431 1.431 0 0 1-1.257.188 1.467 1.467 0 0 1-.38-.188 1.163 1.163 0 0 1-.359-.41c-.097-.177-.146-.402-.146-.675V4.4h2.32zM52.244 0c.202 0 .394.033.575.1a1.384 1.384 0 0 1 .793.728c.08.171.12.362.12.572a1.332 1.332 0 0 1-.44 1.005c-.133.12-.29.212-.473.278a1.696 1.696 0 0 1-.575.097 1.69 1.69 0 0 1-.577-.097 1.419 1.419 0 0 1-.471-.278 1.332 1.332 0 0 1-.439-1.005 1.348 1.348 0 0 1 .439-1.015c.133-.123.29-.218.47-.285.18-.067.373-.1.578-.1zm1.329 4.4v9.26c0 .183-.024.343-.072.48-.048.137-.11.255-.186.355-.076.1-.162.182-.258.248a1.459 1.459 0 0 1-1.056.234 1.437 1.437 0 0 1-.577-.235 1.122 1.122 0 0 1-.256-.247 1.237 1.237 0 0 1-.183-.355 1.498 1.498 0 0 1-.07-.48V4.4h2.658zm1.631 0l3.005-.01 1.775 6.037.255.902.08.314.151.657h.094a24.369 24.369 0 0 1 .51-2.08l1.707-5.82h2.776l-3.198 9.3a1.824 1.824 0 0 1-.736.96 2.03 2.03 0 0 1-.548.252 2.168 2.168 0 0 1-.615.088 2.158 2.158 0 0 1-1.19-.352 1.916 1.916 0 0 1-.444-.408 1.817 1.817 0 0 1-.295-.54l-3.327-9.3zm16.04 6.15c-.119 0-.25-.016-.391-.048a1.193 1.193 0 0 1-.397-.167 1.005 1.005 0 0 1-.307-.323.967.967 0 0 1-.124-.512c0-.203.041-.372.124-.508.082-.135.185-.242.307-.322.122-.08.255-.137.397-.17.142-.033.272-.05.391-.05h2.643c0-.42-.052-.78-.156-1.082a1.992 1.992 0 0 0-.431-.74 1.701 1.701 0 0 0-.647-.426 2.298 2.298 0 0 0-.804-.137c-.433 0-.81.093-1.13.28-.32.187-.589.437-.803.753a3.432 3.432 0 0 0-.481 1.09 5.174 5.174 0 0 0-.159 1.292c0 .627.083 1.158.248 1.595.165.437.386.792.662 1.065.276.273.592.472.95.595.356.123.728.185 1.115.185a5.842 5.842 0 0 0 1.24-.127 5.82 5.82 0 0 0 .515-.133l.24-.078.559-.2a1.303 1.303 0 0 1 .783-.014c.112.035.21.087.295.157.084.07.151.16.2.268.05.108.075.235.075.382 0 .173-.046.344-.139.512a1.37 1.37 0 0 1-.396.443 3.75 3.75 0 0 1-.804.45 6.69 6.69 0 0 1-.92.305 7.838 7.838 0 0 1-1.847.23c-.469 0-.927-.042-1.373-.125a5.483 5.483 0 0 1-1.264-.395 4.58 4.58 0 0 1-1.096-.7 4.126 4.126 0 0 1-.863-1.043 5.282 5.282 0 0 1-.563-1.42 7.616 7.616 0 0 1-.2-1.832c0-.61.063-1.17.19-1.677.128-.509.307-.967.539-1.375a4.683 4.683 0 0 1 1.886-1.846c.385-.205.796-.359 1.232-.462a5.854 5.854 0 0 1 1.354-.155c.75 0 1.417.117 2 .35a3.68 3.68 0 0 1 1.473 1.06c.399.473.702 1.068.91 1.785.208.717.313 1.557.313 2.52v.75h-5.346zm9.813-6.15l.109 1.41c.122-.22.27-.437.444-.65.173-.213.382-.403.625-.57.242-.167.523-.302.842-.405a3.545 3.545 0 0 1 1.366-.142c.093.008.167.02.224.037V6.8a2.282 2.282 0 0 0-.377-.063 4.414 4.414 0 0 0-.377-.017c-.274 0-.537.032-.788.095a2.128 2.128 0 0 0-.677.297c-.2.136-.369.306-.506.513a1.798 1.798 0 0 0-.27.735v5.3c0 .277-.05.502-.151.675a1.259 1.259 0 0 1-.799.61c-.15.037-.277.055-.38.055-.102 0-.228-.018-.378-.055a1.259 1.259 0 0 1-.798-.61c-.102-.173-.152-.398-.152-.675V4.4h2.043zM92.654 7a7.223 7.223 0 0 0-.555-.28 4.97 4.97 0 0 0-1.252-.382 4.259 4.259 0 0 0-1.212-.026 1.671 1.671 0 0 0-.459.123.913.913 0 0 0-.337.245.597.597 0 0 0-.131.4c0 .127.02.237.062.33a.83.83 0 0 0 .185.26c.083.08.184.156.303.228a8.26 8.26 0 0 0 .769.405l.473.215.553.246.263.121c.172.08.322.157.45.23.288.16.54.332.757.515.217.183.398.384.543.602.145.219.255.455.33.71.074.256.111.535.111.838 0 .56-.11 1.046-.33 1.458-.22.411-.514.752-.885 1.022-.37.27-.796.47-1.279.603a5.72 5.72 0 0 1-1.512.197 7.54 7.54 0 0 1-1.448-.125 5.695 5.695 0 0 1-1.026-.285 2.779 2.779 0 0 1-.372-.188 1.38 1.38 0 0 1-.313-.255c-.089-.098-.16-.209-.213-.332a1.043 1.043 0 0 1-.08-.415c0-.17.031-.32.093-.453a.977.977 0 0 1 .248-.332c.104-.09.227-.158.369-.205a1.47 1.47 0 0 1 .838-.02l.18.053.177.057c.28.103.559.182.833.237.274.056.545.083.813.083.169 0 .336-.012.5-.035.166-.023.315-.067.447-.133a.833.833 0 0 0 .32-.27.751.751 0 0 0 .121-.442.944.944 0 0 0-.071-.38.894.894 0 0 0-.206-.292 1.622 1.622 0 0 0-.325-.236 4.942 4.942 0 0 0-.429-.212l-.476-.21a22.892 22.892 0 0 1-1.046-.508 12.819 12.819 0 0 1-.52-.282 4.448 4.448 0 0 1-.78-.54 2.86 2.86 0 0 1-.527-.61 2.438 2.438 0 0 1-.303-.7 3.237 3.237 0 0 1-.096-.81c0-.367.052-.697.158-.992.106-.296.25-.555.434-.78.184-.226.4-.419.65-.58.25-.162.517-.295.803-.4.286-.106.584-.182.895-.23.31-.049.62-.073.927-.073.664 0 1.27.06 1.817.178a6.053 6.053 0 0 1 1.515.537L92.654 7zm4.507-7c.202 0 .394.033.576.1a1.384 1.384 0 0 1 .793.728c.08.171.119.362.119.572a1.332 1.332 0 0 1-.439 1.005c-.134.12-.292.212-.473.278a1.696 1.696 0 0 1-.576.097 1.69 1.69 0 0 1-.577-.097 1.419 1.419 0 0 1-.471-.278 1.332 1.332 0 0 1-.439-1.005 1.348 1.348 0 0 1 .439-1.015c.134-.123.29-.218.47-.285.181-.067.374-.1.578-.1zm1.33 4.4v9.26c0 .183-.025.343-.073.48-.048.137-.11.255-.186.355-.076.1-.161.182-.257.248a1.459 1.459 0 0 1-1.056.234 1.437 1.437 0 0 1-.578-.235 1.122 1.122 0 0 1-.255-.247 1.237 1.237 0 0 1-.184-.355 1.498 1.498 0 0 1-.07-.48V4.4h2.658zm6.029-2.14V4.4h1.433c.201 0 .376.018.525.055.149.037.283.097.402.18.122.083.22.194.292.333.073.138.11.309.11.512 0 .21-.04.383-.12.52a.933.933 0 0 1-.307.325c-.126.08-.262.136-.41.167a2.351 2.351 0 0 1-.492.048h-1.433v4.98l.005.414.007.179c.008.168.036.31.082.425.046.115.12.2.223.257.102.057.248.085.436.085.115 0 .234-.012.357-.036l.189-.044c.191-.053.367-.08.525-.08.142 0 .274.02.394.063.121.041.224.102.308.182.084.08.15.178.198.295.048.117.072.25.072.4 0 .25-.067.457-.2.623-.135.165-.306.299-.514.402-.221.107-.49.196-.808.268a4.606 4.606 0 0 1-1.017.107c-.218 0-.436-.01-.654-.027a3.363 3.363 0 0 1-.63-.113 2.53 2.53 0 0 1-.57-.238 1.79 1.79 0 0 1-.478-.4 2.127 2.127 0 0 1-.353-.607 3.228 3.228 0 0 1-.19-.855 6.741 6.741 0 0 1-.035-.568l-.005-.552V6.54h-1.493V4.4h1.493V2.26h2.658zm6.118 2.14l1.686 4.94c.145.423.275.853.39 1.29.113.437.228.867.344 1.29h.064l.948-3.535.248-.89.514-1.8.285-1.069.058-.226h2.846l-3.57 10.72a7.587 7.587 0 0 1-.845 1.775 6.042 6.042 0 0 1-1.12 1.29c-.41.347-.838.61-1.288.788-.45.178-.894.267-1.333.267-.176 0-.34-.023-.491-.07a1.157 1.157 0 0 1-.397-.208.962.962 0 0 1-.265-.345 1.144 1.144 0 0 1-.097-.487c0-.15.022-.283.067-.4.045-.117.106-.22.184-.308a1.2 1.2 0 0 1 .275-.23c.07-.043.145-.083.224-.12l.123-.052c.26-.103.52-.23.778-.38s.489-.322.692-.518c.203-.195.368-.41.493-.647.126-.237.189-.495.189-.775 0-.083-.012-.18-.035-.287a3.964 3.964 0 0 0-.087-.333l-.054-.167-.161-.433-3.65-9.08h2.985z"/>
    </g>
</svg>
