<?xml version="1.0" encoding="UTF-8"?>
<svg width="94px" height="40px" viewBox="0 0 94 40" version="1.1" xmlns="http://www.w3.org/2000/svg" xmlns:xlink="http://www.w3.org/1999/xlink">
    <title>02</title>
    <defs>
        <polygon id="path-1" points="0 0 27.0967742 0 27.0967742 12.9032258 0 12.9032258"></polygon>
    </defs>
    <g id="Page-1" stroke="none" stroke-width="1" fill="none" fill-rule="evenodd">
        <g id="02">
            <g id="logo_gnb"></g>
            <g id="Group" transform="translate(0.000000, 0.000000)">
                <g transform="translate(0.000000, 0.000000)">
                    <path d="M89.5111378,8.44720024 C88.3506381,8.44720024 87.4095439,9.45185902 87.4095439,10.6919274 L87.4095439,24.8522302 C87.4095439,26.0921154 88.3506381,27.0967742 89.5111378,27.0967742 C90.6721522,27.0967742 91.6129032,26.0921154 91.6129032,24.8522302 L91.6129032,10.6919274 C91.6129032,9.45185902 90.6721522,8.44720024 89.5111378,8.44720024 M80.1770487,2.58064516 L74.0597654,2.58064516 C71.2292782,2.58064516 68.9348681,5.03092072 68.9348681,8.05369056 L68.9348681,18.9854919 C68.9348681,20.2250107 69.8756192,21.2300359 71.0366335,21.2300359 C72.1974764,21.2300359 73.1382274,20.2250107 73.1382274,18.9854919 L73.1382274,8.31309918 C73.1382274,7.10399124 74.0559915,6.12406421 75.1881863,6.12406421 L79.0484563,6.12406421 C80.1804796,6.12406421 81.0980721,7.10399124 81.0980721,8.31309918 L81.0980721,18.9854919 C81.0980721,20.2250107 82.0389947,21.2300359 83.2000091,21.2300359 C84.3608519,21.2300359 85.3016029,20.2250107 85.3016029,18.9854919 L85.3016029,8.05369056 C85.3016029,5.03092072 83.0071928,2.58064516 80.1770487,2.58064516 M64.7251617,8.44720024 C63.5644904,8.44720024 62.6235678,9.45204221 62.6235678,10.6919274 L62.6235678,21.3643202 C62.6235678,22.5732449 61.7056322,23.5535383 60.5737805,23.5535383 L56.7135105,23.5535383 C55.5811441,23.5535383 54.6633801,22.5732449 54.6633801,21.3643202 L54.6633801,10.6919274 C54.6633801,9.45204221 53.7224575,8.44720024 52.5616147,8.44720024 C51.4011149,8.44720024 50.4600208,9.45204221 50.4600208,10.6919274 L50.4600208,21.6237288 C50.4600208,24.6463154 52.7544309,27.0967742 55.5849181,27.0967742 L61.7020298,27.0967742 C64.5326886,27.0967742 66.8270987,24.6463154 66.8270987,21.6237288 L66.8270987,10.6919274 C66.8270987,9.45204221 65.8860045,8.44720024 64.7251617,8.44720024 M43.4237727,13.6212662 L36.8988992,13.6212662 L36.8988992,13.6207166 C35.7166133,13.6207166 34.9583858,12.7611508 34.9583858,11.6998838 C34.9583858,10.6395328 35.7166133,9.77960055 36.8988992,9.77960055 L45.8718868,9.77960055 C46.817098,9.77960055 47.5835596,8.96143751 47.5835596,7.95183238 C47.5835596,6.94241045 46.817098,6.12406421 45.8718868,6.12406421 L36.2955766,6.12406421 C33.2226967,6.12406421 30.9677419,8.62050571 30.9677419,11.6998838 C30.9677419,14.7801779 33.2226967,17.276253 36.2955766,17.276253 L42.657311,17.276253 C43.8394254,17.2736882 44.5991968,18.132338 44.6014269,19.193605 C44.6034854,20.2541393 43.8397685,21.1151707 42.657311,21.1184682 L33.1913041,21.1184682 C32.246436,21.1184682 31.4801459,21.9366313 31.4801459,22.94587 C31.4801459,23.9551087 32.246436,24.773455 33.1913041,24.773455 L43.4702613,24.773455 L43.4702613,24.7727222 C46.5309614,24.750372 48.7684187,22.2579609 48.762085,19.1859107 C48.7567537,16.1067158 46.4961379,13.6143047 43.4237727,13.6212662" id="suni" fill="#E0002B"></path>
                    <g id="my" transform="translate(-0.000000, 9.032258)">
                        <mask id="mask-2" fill="white">
                            <use xlink:href="#path-1"></use>
                        </mask>
                        <g id="Clip-4"></g>
                        <path d="M22.7723883,12.0926183 C22.2665804,12.0926183 21.8551923,11.6702835 21.8551923,11.1513788 C21.8551923,10.6319305 22.2665804,10.2095957 22.7723883,10.2095957 C23.2778433,10.2095957 23.6890549,10.6319305 23.6890549,11.1513788 C23.6890549,11.6702835 23.2778433,12.0926183 22.7723883,12.0926183 L22.7723883,12.0926183 Z M22.7723883,9.39916937 C21.8310137,9.39916937 21.0654188,10.1851361 21.0654188,11.1513788 C21.0654188,12.1176214 21.8310137,12.9032258 22.7723883,12.9032258 C23.7132335,12.9032258 24.4786519,12.1176214 24.4786519,11.1513788 C24.4786519,10.1851361 23.7132335,9.39916937 22.7723883,9.39916937 L22.7723883,9.39916937 Z M25.7516431,0 L19.7926041,0 C18.758751,0 18.112637,1.1492363 18.629387,2.06837168 L21.9967338,8.05588734 C22.3414103,8.66846308 23.2030134,8.66846308 23.5476899,8.05588734 L26.9148602,2.06837168 C27.4317867,1.1492363 26.7854962,0 25.7516431,0 L25.7516431,0 Z M14.9750746,0.690302741 C14.4579715,-0.228832641 13.1657434,-0.228832641 12.6488168,0.690302741 L9.06862836,7.05648842 L5.48773394,0.689396832 C4.97080738,-0.229557368 3.67857924,-0.229557368 3.16165269,0.689396832 L0.181868492,5.98787803 C-0.335058061,6.90701341 0.311232494,8.05588734 1.3450856,8.05588734 L16.7912887,8.05588734 C17.8251418,8.05588734 18.4714323,6.90683223 17.9543293,5.98787803 L14.9750746,0.690302741 Z" id="Fill-3" fill="#60C0BD" mask="url(#mask-2)"></path>
                    </g>
                    <path d="M89.0320816,1.48765981 C87.7181757,1.48765981 86.6486312,2.55665065 86.6486312,3.87105596 C86.6486312,5.18528484 87.7181757,6.25462854 89.0320816,6.25462854 C90.3463405,6.25462854 91.4157085,5.18528484 91.4157085,3.87105596 C91.4157085,2.55665065 90.3463405,1.48765981 89.0320816,1.48765981 M89.0320816,7.74193548 C86.8975799,7.74193548 85.1612903,6.0053326 85.1612903,3.87105596 C85.1612903,1.73660288 86.8975799,0 89.0320816,0 C91.1667598,0 92.9032258,1.73660288 92.9032258,3.87105596 C92.9032258,6.0053326 91.1667598,7.74193548 89.0320816,7.74193548" id="Fill-6" fill="#60C0BD"></path>
                    <g id="ss" transform="translate(28.387097, 32.258065)" fill="#C8C9C9">
                        <path d="M21.0908217,3.09062867 L18.2142201,3.09062867 C17.7961498,3.09062867 17.4562139,2.74780113 17.4562139,2.32636801 C17.4562139,1.90439894 17.7961498,1.56210734 18.2142201,1.56210734 L22.2565818,1.56210734 C22.6839539,1.56210734 23.0304855,1.21231249 23.0304855,0.781768268 C23.0304855,0.350330799 22.6839539,0 22.2565818,0 L18.2142201,0 C16.943435,0 15.909252,1.04402508 15.909252,2.32636801 C15.909252,3.60906823 16.943435,4.65220006 18.2142201,4.65220006 L21.0908217,4.65220006 C21.5090612,4.65220006 21.8488279,4.9950276 21.8488279,5.41663937 C21.8488279,5.83842979 21.5090612,6.18018544 21.0908217,6.18018544 L16.9571339,6.18018544 C16.5301001,6.18018544 16.1837376,6.53015894 16.1837376,6.96106046 C16.1837376,7.39214063 16.5301001,7.74193548 16.9571339,7.74193548 L21.0908217,7.74193548 C22.3617759,7.74193548 23.3959589,6.6982677 23.3959589,5.41663937 C23.3959589,4.13429645 22.3617759,3.09062867 21.0908217,3.09062867" id="Fill-9"></path>
                        <path d="M31.0248272,0 C30.5875941,0 30.2323638,0.350330799 30.2323638,0.781768268 L30.2323638,5.13651765 C30.2323638,5.71176761 29.7562964,6.18018544 29.1718742,6.18018544 L26.9784272,6.18018544 C26.3941783,6.18018544 25.9181109,5.71176761 25.9181109,5.13651765 L25.9181109,0.781768268 C25.9181109,0.350330799 25.5628806,0 25.1251274,0 C24.6870275,0 24.3317972,0.350330799 24.3317972,0.781768268 L24.3317972,5.13651765 C24.3317972,6.57285606 25.519192,7.74193548 26.9784272,7.74193548 L29.1718742,7.74193548 C30.6311093,7.74193548 31.8185041,6.57285606 31.8185041,5.13651765 L31.8185041,0.781768268 C31.8185041,0.350330799 31.4632738,0 31.0248272,0" id="Fill-11"></path>
                        <path d="M41.8789172,0 C41.4916321,0 41.1768876,0.349439806 41.1768876,0.780883828 L41.1768876,6.96087606 C41.1768876,7.39232008 41.4916321,7.74193548 41.8789172,7.74193548 C42.2666547,7.74193548 42.5806452,7.39232008 42.5806452,6.96087606 L42.5806452,0.780883828 C42.5806452,0.349439806 42.2666547,0 41.8789172,0" id="Fill-13"></path>
                        <path d="M37.5944298,0 L35.4004418,0 C33.9425215,0 32.7543424,1.16943672 32.7543424,2.60613243 L32.7543424,6.96106046 C32.7543424,7.39214063 33.109548,7.74193548 33.5474441,7.74193548 C33.9853403,7.74193548 34.3407192,7.39214063 34.3407192,6.96106046 L34.3407192,2.60613243 C34.3407192,2.03016787 34.8162335,1.56210734 35.4004418,1.56210734 L37.5944298,1.56210734 C38.1791582,1.56210734 38.6543258,2.03016787 38.6543258,2.60613243 L38.6543258,6.96106046 C38.6543258,7.39214063 39.0100514,7.74193548 39.4476008,7.74193548 C39.8853237,7.74193548 40.2410493,7.39214063 40.2410493,6.96106046 L40.2410493,2.60613243 C40.2410493,1.16943672 39.0528702,0 37.5944298,0" id="Fill-15"></path>
                        <path d="M4.65425825,1.93548387 C4.11246326,1.93548387 3.62179955,2.20861115 3.27600783,2.64439184 C2.93005223,2.20861115 2.43971629,1.93548387 1.896938,1.93548387 C0.850877072,1.93548387 0,2.94605481 0,4.18959925 L0,7.13060936 C0,7.94591467 1.03622799,7.94550702 1.03622799,7.13060936 L1.03622799,4.18959925 C1.03622799,2.8368039 2.75846742,2.83639625 2.75846742,4.18959925 L2.75846742,7.13060936 C2.75846742,7.94591467 3.793876,7.94550702 3.793876,7.13060936 L3.793876,4.18959925 C3.793876,2.83823068 5.51578767,2.83639625 5.51578767,4.18959925 L5.51578767,7.13060936 C5.51578767,7.94591467 6.55086849,7.94550702 6.55086849,7.13060936 L6.55086849,4.18959925 C6.55086849,2.94605481 5.70031918,1.93548387 4.65425825,1.93548387" id="Fill-17"></path>
                        <path d="M12.8586528,2.07098941 C12.5910202,1.86412853 12.2107622,1.92085825 12.0104301,2.19802346 L10.2996614,4.56243721 L8.57790486,2.1860697 C8.37757284,1.90991752 7.99829586,1.8531878 7.72968222,2.06004868 C7.46165721,2.26650434 7.40711039,2.65895245 7.60744241,2.93591505 L9.68826616,5.80826241 L9.68826616,7.11649031 C9.68826616,7.46173118 9.95962676,7.74193548 10.2943637,7.74193548 C10.6289044,7.74193548 10.9002651,7.46173118 10.9002651,7.11649031 L10.9002651,5.82264745 L12.981285,2.94665318 C13.1814208,2.67029839 13.1264816,2.2782555 12.8586528,2.07098941" id="Fill-19"></path>
                    </g>
                </g>
            </g>
        </g>
    </g>
</svg>