<svg xmlns="http://www.w3.org/2000/svg" width="64" height="64" viewBox="0 0 64 64">
    <g fill="none" fill-rule="evenodd" stroke="#222" stroke-linejoin="round" stroke-width="2">
        <path d="M15.423 45.385L15.65 52.444M38.11 51.436V36.988c5.702-3.82 9.352-10.403 8.974-17.801C46.564 8.967 38.121.589 27.772.03 15.934-.608 6.132 8.682 6.132 20.233L6.11 21.56C6.132 22.157 0 31.978 0 31.978l5.482 1.958V39.743c0 3.17 2.602 5.739 5.811 5.739 0 0 22.153-.222 22.153-5.78v-4.323s0-1.236-1.251-2.47l-5.63-5.559v-4.94" transform="translate(8 5.333)"/>
        <path d="M33.078 16.137c0 3.342-2.693 6.051-6.014 6.051-3.322 0-6.014-2.71-6.014-6.051 0-3.342 2.692-6.052 6.014-6.052 3.321 0 6.014 2.71 6.014 6.052zM26.563 10.085L26.563 0" transform="translate(8 5.333)"/>
    </g>
</svg>

